<svg version="1" xmlns="http://www.w3.org/2000/svg" width="933.333" height="933.333" viewBox="0 0 700.000000 700.000000"><path d="M335.2 12.6c5.2 15.3 0 39.2-12.7 58.5-2.4 3.7-5.9 9.4-7.6 12.6-1.7 3.2-4.8 8.7-6.9 12.3-2.1 3.6-4.8 8.3-6.1 10.6-1.3 2.3-9.1 15.7-17.4 29.8-8.2 14.1-15.4 26.4-16 27.4-4.4 7.7-20.8 35.3-31.1 52.2-6.8 11.3-12.7 21.1-13.1 21.9-.3.8-4.3 7.5-8.8 15-11.2 18.7-12.9 21.9-14.8 27.6-6.9 21-1.6 43.3 13.9 58.9 5.7 5.6 9.2 7.8 39.4 24.6 15.1 8.4 29.1 16.2 31 17.3 1.9 1.1 9.1 5.1 16 8.9 6.9 3.9 14.1 8.1 16.2 9.5 6.5 4.4 7.9 12.5 3.3 19.5-1.4 2.1-2.2 3.9-1.8 3.9 3.2.6 131.3.3 131.3-.3 0-2-3.5-10.5-5.3-13.2-3.7-5.1-10.9-11.6-18-16.2-3.7-2.4-6.9-4.4-7.1-4.4-.2 0-4.1-2.2-8.7-4.8-4.6-2.7-11.3-6.4-14.9-8.4-3.6-1.9-14.6-8-24.5-13.5s-20.2-11.3-23-12.8c-2.7-1.5-8.8-4.9-13.5-7.5-4.7-2.6-10.7-5.9-13.5-7.5-2.7-1.5-6.8-3.7-9-5-2.2-1.2-9-5-15.2-8.4-13.8-7.6-20.1-13.2-23.9-20.8-2.4-5.1-2.8-7-2.8-15.3-.1-11.7-.4-11 18.9-43.7 8.1-13.6 16.4-27.5 18.3-30.8 1.9-3.3 4.6-7.7 5.9-9.8 1.3-2.1 3.2-5.2 4.2-7 1-1.8 4-7 6.7-11.6 2.7-4.5 5.7-9.6 6.8-11.4 1-1.8 13.5-23 27.9-47.2 40.8-69 42.7-72.2 42.7-73.3 0-1.6-29-22.2-31.3-22.2-.4 0-.5-.5-.1-1.2.4-.6.3-.8-.3-.5-.5.3-4.7-1.6-9.3-4.3-4.6-2.8-8.7-5-9.2-5-.4 0-.8-.5-.8-1.1 0-.5-.4-.7-1-.4-.5.3-1 .1-1-.4 0-.6-.5-1.1-1-1.1-.6 0-3.4-1.4-6.3-3.1-2.9-1.7-4.3-2.8-3.2-2.4 1.1.3 1.6.3 1.2-.2-.5-.4-2.1-.8-3.6-.9l-2.7-.1 1.8 5.3z"/><path d="M425.4 69.6c-1 .8-1.2 1.2-.4.8 1.3-.7 1.3-.5.1.9-.7.9-1.8 1.4-2.4 1-.5-.3-.7-.1-.4.5.9 1.3-.2 4.4-1.3 3.7-.4-.3-.7.3-.6 1.3 0 .9-.5 1.6-1.2 1.4-.8-.1-1.1.2-.7.7.8 1.4-2.4 7.3-3.5 6.6-.6-.3-.7 0-.5.7.3.8-.3 2.3-1.4 3.5-1.1 1.1-1.7 2.4-1.4 2.7.4.3.1.6-.6.6s-1 .3-.7.8c.2.4-.9 2.6-2.5 5-1.6 2.3-2.9 4.7-2.9 5.2 0 .6-.5 1-1 1-.6 0-.9.6-.8 1.2.2.7-.2 1.2-.8 1.1-.7-.1-1 .6-.7 1.6.3 1-.1 2.2-.8 2.6-.8.6-1 .4-.4-.5.5-.8.4-1.1-.3-.6-.6.4-.9 1.3-.6 2.1.4.8-.1 1.8-1 2.1-.9.3-1.3 1-1.1 1.5.3.4-.3 1.7-1.5 2.9-1.1 1.1-1.8 2-1.5 2 .3 0 .1.9-.5 2s-1.5 1.8-2 1.5c-.6-.3-.7.1-.4.9.3.9.1 1.6-.6 1.6-.6 0-.9.4-.5.9.3.5 0 1.5-.7 2.3-.7.7-2.2 2.9-3.2 4.8-3.3 6-24.5 41.9-33.2 56-4.5 7.4-18 29.7-29.9 49.5-17.9 29.8-21.6 36.7-21.7 39.9-.1 7.2-1.2 6.4 46.2 32.6 21.9 12.1 26.6 14.6 36.3 20.1 3.8 2.2 7 3.9 7.2 3.9.2 0 5.5 3.1 11.7 6.8 6.2 3.8 17.4 10.2 24.8 14.2 17.8 9.7 21.3 12 29.1 18.8 5.8 5.1 13.9 14.9 13.9 16.8 0 .4.6 1.5 1.4 2.3 1.3 1.5 6.7 16.4 6.5 17.9-.1.4-.1 2.3 0 4.2l.1 3.5 3.1-4.9c4.1-6.5 8.4-17.5 10.2-26.1 2.2-9.9 1.6-27.7-1.2-38-2.2-7.9-5.9-16.7-7.3-17.3-.5-.2-.8-.9-.8-1.7 0-1.6-7.3-11-12.5-15.8-3.7-3.6-13.9-10.2-24.4-15.8-2.4-1.3-5.1-2.9-6-3.4-.9-.6-5.2-3-9.6-5.5-30.6-17.1-41.1-23.5-43.4-26.3-3-3.6-3.8-10.1-1.8-14.7 1.5-3.3 3-5.9 11.5-20.4 1.7-3.1 3.2-6 3.2-6.6 0-.5.4-1 .8-1 .8 0 3.9-5.7 4-7.4 0-.5.4-1.2.9-1.5 2-1.4 6.3-9.3 5.7-10.3-.4-.6-.3-.8.3-.5.9.6 4.9-6 4.5-7.6-.1-.4.2-.7.6-.7.5 0 2.3-2.3 4.2-5.1 7.5-11.6 13.5-15.5 21.3-13.7 4.6 1 25.9 12.3 32.9 17.4 10.4 7.7 20.8 22.2 23.2 32.8.4 1.5.9 2.6 1.2 2.4.2-.3 1.1-4.1 2-8.4 2-10.6 2-28.9-.1-38.9-.9-4.4-1.9-8.9-2.1-9.9-1.5-8-9.2-26.3-15.6-37.5-9.5-16.5-20.4-30.7-36.1-47.1-4.5-4.7-9.6-10.1-11.3-12-1.7-1.9-4.4-4.7-6-6.3-2.8-2.5-3.2-2.6-5-1.1zM438.3 453.8c-.6.4-46.3.7-101.6.7-76.5 0-100.3.3-99.6 1.2.6.6 4.2 3.3 8.2 6 22.6 15.2 43.8 35.5 54.4 52.1 10.7 16.6 18.6 39.8 20.8 60.7.4 3.3.9 7.8 1.2 10 .3 2.2.7 29 .8 59.5.1 31.6.6 55.4 1.1 55.3 1-.2 11.7-6.1 31.4-17.2 3-1.7 8.1-4.5 11.3-6.2l5.7-3.2.1-52.1c0-56.9.1-57.5 2.4-67.4 5.1-21.1 20.3-39.9 40-49.7 12.4-6.2 21.2-8.3 36.5-8.4 37.1-.5 49.3-2.4 64.9-9.9 9.8-4.8 18.2-12.6 22-20.5 5.4-11.2 8.9-10.1-32.4-10.1-22.8-.1-36.3-.5-36.7-1.1-.5-.7-1.1-.6-1.5.1-1 1.3-4.3 1.4-4.3.1 0-.5-.7-.4-1.5.3-1.2 1-1.9 1-2.7.2-.8-.8-1.7-.8-3-.1-1.3.7-1.8.6-1.8-.2s-.4-.8-1.2-.1c-.7.5-2.2.6-3.3.2-1.1-.4-2.8-.3-3.7.2-1.2.6-1.8.5-1.8-.3s-.4-.9-1.3 0c-.8.6-1.7.7-2.3.1-.5-.5-1.4-.6-2.1-.2z"/><path d="M440.7 529.2c-16.3 5.3-30.5 20.2-34.9 36.7-.9 2.9-2.1 89.1-1.3 89.1.4 0 9.4-4.9 20.7-11.3 6.2-3.5 14.8-8.3 19.2-10.6 4.3-2.3 8.7-4.8 9.7-5.4 1.8-1.1 1.8-3.6 1.9-51v-49.8l-5 .3c-2.8.2-7.5 1.1-10.3 2z"/></svg>