<?xml version="1.0" encoding="utf-8"?>
<!-- Generator: Adobe Illustrator 19.0.0, SVG Export Plug-In . SVG Version: 6.00 Build 0)  -->
<svg version="1.1" id="Layer_1" xmlns="http://www.w3.org/2000/svg" xmlns:xlink="http://www.w3.org/1999/xlink" x="0px" y="0px"
	 viewBox="0 0 64 64" style="enable-background:new 0 0 64 64;" xml:space="preserve">
<style type="text/css">
	.st0{fill:#2C2C2C;}
	.st1{fill:#2C2C2C;stroke:#B5C0CB;stroke-width:3;stroke-miterlimit:10;}
</style>
<g id="XMLID_100_">
	<rect id="XMLID_99_" x="31" y="2.4" class="st0" width="1.5" height="18.1"/>
	<rect id="XMLID_98_" x="31" y="47.1" class="st0" width="1.5" height="14.3"/>
	<rect id="XMLID_97_" x="3.2" y="24.5" class="st0" width="16.2" height="1.5"/>
	<rect id="XMLID_96_" x="44.1" y="37.8" class="st0" width="17.1" height="1.5"/>
	<rect id="XMLID_95_" x="44.1" y="30.2" class="st0" width="17.1" height="1.5"/>
	<rect id="XMLID_94_" x="5.1" y="11.1" class="st0" width="40.9" height="1.5"/>
	<rect id="XMLID_93_" x="24.2" y="51.1" class="st0" width="34.3" height="1.5"/>
	<rect id="XMLID_92_" x="46.2" y="33.8" class="st0" width="1.5" height="1.9"/>
	<rect id="XMLID_91_" x="50" y="33.8" class="st0" width="1.5" height="1.9"/>
	<rect id="XMLID_90_" x="53.9" y="33.8" class="st0" width="1.5" height="1.9"/>
	<path id="XMLID_89_" class="st0" d="M31.8,62.1c-5.7,0-10.1-12.1-10.3-22.8H7v-1.5h16v0.8c0,10.9,4.4,22.1,8.8,22.1V62.1z"/>
	<rect id="XMLID_88_" x="60.3" y="51.1" class="st0" width="1.9" height="1.5"/>
	<rect id="XMLID_87_" x="1.3" y="11.1" class="st0" width="1.9" height="1.5"/>
	<rect id="XMLID_86_" x="34.6" y="18.7" class="st0" width="1.9" height="1.5"/>
	<rect id="XMLID_85_" x="38.4" y="18.7" class="st0" width="1.9" height="1.5"/>
	<rect id="XMLID_84_" x="42.2" y="22.6" class="st0" width="1.9" height="1.5"/>
	<path id="XMLID_83_" class="st0" d="M62,31.9h-1.5C60.5,16,47.6,3.1,31.8,3.1c-14.4,0-26.7,10.8-28.5,25L1.8,28
		c1.9-15,14.8-26.4,30-26.4C48.5,1.6,62,15.2,62,31.9z"/>
	<path id="XMLID_82_" class="st0" d="M31.8,62.1c-16.7,0-30.3-13.6-30.3-30.3v-0.8h11.2v1.5H3c0.4,15.5,13.1,28,28.7,28
		c15.1,0,27.7-11.8,28.7-26.9l1.5,0.1C61,49.7,47.7,62.1,31.8,62.1z"/>
	<rect id="XMLID_81_" x="8.9" y="41.6" class="st0" width="1.9" height="1.5"/>
	<rect id="XMLID_80_" x="15.6" y="47.3" class="st0" width="13.3" height="1.5"/>
	<rect id="XMLID_79_" x="42.2" y="18.7" class="st0" width="16.2" height="1.5"/>
	<rect id="XMLID_78_" x="5.1" y="18.7" class="st0" width="18.1" height="1.5"/>
	<path id="XMLID_77_" class="st0" d="M31.8,62.1C20.9,62.1,12,48.6,12,31.9S20.9,1.6,31.8,1.6c10.7,0,19.8,13.4,19.8,29.3H50
		c0-15.1-8.4-27.8-18.3-27.8C21.7,3.1,13.5,16,13.5,31.9s8.2,28.7,18.3,28.7c6.3,0,12.3-5.3,15.6-13.8l1.4,0.6
		C45.2,56.6,38.8,62.1,31.8,62.1z"/>
	<rect id="XMLID_76_" x="34.6" y="43.5" class="st0" width="23.8" height="1.5"/>
	<rect id="XMLID_75_" x="34.6" y="47.3" class="st0" width="1.9" height="1.5"/>
	<rect id="XMLID_74_" x="38.4" y="47.3" class="st0" width="1.9" height="1.5"/>
	<rect id="XMLID_73_" x="21.3" y="24.5" class="st0" width="1.9" height="1.5"/>
	<rect id="XMLID_72_" x="21.3" y="28.3" class="st0" width="1.9" height="1.5"/>
	<rect id="XMLID_71_" x="21.3" y="32.1" class="st0" width="1.9" height="1.5"/>
	<path id="XMLID_433_" class="st1" d="M31.8,25.2"/>
	<path id="XMLID_1_" class="st0" d="M22.8,19.9v25.2h20V19.9H22.8z M30.6,42.3l0.1-0.2c0.2-0.4,0.1-0.8-0.3-1l-4.3-2.4
		c-1.4-0.8-1.9-2.5-1.1-3.9l2.1-3.6l-0.1,0.1c0,0,0,0,0,0.1c0,0,0,0,0-0.1l0.1-0.1l0-0.1l3.2-5.4l0,0l0.4-0.7c0,0,0,0,0-0.1
		c1.1-2,0.4-3,0.4-3l0.7,0.4l1.5,0.9c0.4,0.3,0.8,0.6,1.3,0.9l-6.3,10.6c-0.5,0.8-0.2,1.8,0.5,2.3c-0.1,0-0.1-0.1-0.2-0.2
		c0,0,0,0-0.1-0.1c0,0-0.1-0.1-0.1-0.1c0,0-0.1,0-0.1-0.1c-0.1,0-0.1-0.1-0.2-0.2c0,0-0.1-0.1-0.1-0.1c0,0,0,0,0,0c0,0,0,0,0,0
		c0,0,0,0,0,0c0,0,0,0,0,0c0,0,0.1,0.1,0.1,0.1c0.1,0.1,0.1,0.1,0.2,0.2c0,0,0.1,0,0.1,0.1c0,0,0.1,0.1,0.1,0.1c0,0,0.1,0,0.1,0.1
		c0.1,0.1,0.2,0.1,0.2,0.2c0,0,0.1,0,0.1,0.1c0,0,0.1,0,0.1,0c0,0,0,0,0,0l6.6,3.6c1.4,0.8,1.4,1.6,1.4,1.6H30.6z M39.5,32.9
		c-0.1-0.8-0.7-1.6-1.6-2.1l-0.9-0.5c0,0,0,0,0,0c0,0-0.1,0-0.1,0c-0.5-0.2-0.5-0.2,0,0c-0.3-0.1-0.7,0-0.9,0.3L35.6,31l-1.7,2.9
		c-0.2,0.4-0.1,0.8,0.3,1l1.4,0.8l0.5,0.3l1.4,0.8c0.7,0.4,1.2,1,1.5,1.7c0.2,0.5,0.3,1,0.3,1.5c0,0.9-0.3,1.7-0.7,2.3
		c0-1.1-0.7-2.1-1.9-2.8l-0.8-0.5L35,38.6l-0.4-0.2l-1.3-0.7l-3.2-1.8c-0.3-0.2-0.4-0.5-0.2-0.8l2.4-4.1c0,0,0,0,0,0c0,0,0,0,0,0
		l3.6-6.1c0.2,0.2,0.4,0.4,0.6,0.5c0.6,0.6,1.1,1.2,1.6,1.8C39.3,28.9,40,30.8,39.5,32.9z"/>
</g>
</svg>
