<?xml version="1.0" encoding="utf-8"?>
<!-- Generator: Adobe Illustrator 19.0.0, SVG Export Plug-In . SVG Version: 6.00 Build 0)  -->
<svg version="1.1" id="Layer_1" xmlns="http://www.w3.org/2000/svg" xmlns:xlink="http://www.w3.org/1999/xlink" x="0px" y="0px"
	 viewBox="0 0 64 64" style="enable-background:new 0 0 64 64;" xml:space="preserve">
<style type="text/css">
	.st0{fill:#2C2C2C;}
</style>
<g id="XMLID_153_">
	
		<rect id="XMLID_217_" x="38.4" y="53.9" transform="matrix(0.2169 0.9762 -0.9762 0.2169 87.6691 7.5282)" class="st0" width="1.5" height="9.1"/>
	
		<rect id="XMLID_216_" x="57.5" y="34.7" transform="matrix(0.9701 0.2428 -0.2428 0.9701 11.1572 -12.9971)" class="st0" width="1.5" height="8.1"/>
	<rect id="XMLID_215_" x="31" y="48.6" class="st0" width="1.5" height="7.9"/>
	<path id="XMLID_212_" class="st0" d="M31.8,8.1c-2,0-3.7-1.7-3.7-3.7s1.7-3.7,3.7-3.7c2,0,3.7,1.7,3.7,3.7S33.8,8.1,31.8,8.1z
		 M31.8,2.2c-1.2,0-2.2,1-2.2,2.2s1,2.2,2.2,2.2c1.2,0,2.2-1,2.2-2.2S33,2.2,31.8,2.2z"/>
	<path id="XMLID_209_" class="st0" d="M31.8,63.1c-2,0-3.7-1.7-3.7-3.7c0-2,1.7-3.7,3.7-3.7c2,0,3.7,1.7,3.7,3.7
		C35.5,61.4,33.8,63.1,31.8,63.1z M31.8,57.2c-1.2,0-2.2,1-2.2,2.2s1,2.2,2.2,2.2c1.2,0,2.2-1,2.2-2.2S33,57.2,31.8,57.2z"/>
	<path id="XMLID_206_" class="st0" d="M56.3,49.3c-2,0-3.7-1.7-3.7-3.7s1.7-3.7,3.7-3.7c2,0,3.7,1.7,3.7,3.7S58.4,49.3,56.3,49.3z
		 M56.3,43.4c-1.2,0-2.2,1-2.2,2.2s1,2.2,2.2,2.2c1.2,0,2.2-1,2.2-2.2S57.5,43.4,56.3,43.4z"/>
	<path id="XMLID_203_" class="st0" d="M46.5,60.1c-2,0-3.7-1.7-3.7-3.7c0-2,1.7-3.7,3.7-3.7c2,0,3.7,1.7,3.7,3.7
		C50.2,58.5,48.6,60.1,46.5,60.1z M46.5,54.3c-1.2,0-2.2,1-2.2,2.2c0,1.2,1,2.2,2.2,2.2c1.2,0,2.2-1,2.2-2.2
		C48.7,55.2,47.7,54.3,46.5,54.3z"/>
	<rect id="XMLID_202_" x="21" y="14.4" class="st0" width="2" height="1.5"/>
	<rect id="XMLID_201_" x="21" y="47.8" class="st0" width="2" height="1.5"/>
	<rect id="XMLID_200_" x="40.6" y="47.8" class="st0" width="2" height="1.5"/>
	<rect id="XMLID_199_" x="12.1" y="31.1" class="st0" width="2" height="1.5"/>
	<rect id="XMLID_198_" x="40.6" y="14.4" class="st0" width="2" height="1.5"/>
	<rect id="XMLID_197_" x="49.5" y="31.1" class="st0" width="2" height="1.5"/>
	
		<rect id="XMLID_196_" x="50.7" y="46.5" transform="matrix(0.7591 0.651 -0.651 0.7591 45.6147 -21.1795)" class="st0" width="1.5" height="9.1"/>
	
		<rect id="XMLID_195_" x="34.6" y="4.6" transform="matrix(0.9762 0.2169 -0.2169 0.9762 2.0945 -8.3636)" class="st0" width="9.1" height="1.5"/>
	
		<rect id="XMLID_194_" x="54.2" y="24.2" transform="matrix(0.2426 0.9701 -0.9701 0.2426 68.4168 -37.6173)" class="st0" width="8.1" height="1.5"/>
	
		<rect id="XMLID_193_" x="46.9" y="12" transform="matrix(0.6508 0.7592 -0.7592 0.6508 27.6176 -34.5974)" class="st0" width="9.1" height="1.5"/>
	
		<rect id="XMLID_192_" x="19.9" y="57.6" transform="matrix(0.9762 0.2169 -0.2169 0.9762 13.251 -3.9039)" class="st0" width="9.1" height="1.5"/>
	
		<rect id="XMLID_191_" x="1.2" y="38" transform="matrix(0.2426 0.9701 -0.9701 0.2426 41.5785 24.2627)" class="st0" width="8.1" height="1.5"/>
	
		<rect id="XMLID_190_" x="7.6" y="50.3" transform="matrix(0.6508 0.7593 -0.7593 0.6508 42.9859 8.6145)" class="st0" width="9.1" height="1.5"/>
	
		<rect id="XMLID_189_" x="23.6" y="0.8" transform="matrix(0.2169 0.9762 -0.9762 0.2169 24.3453 -19.63)" class="st0" width="1.5" height="9.1"/>
	
		<rect id="XMLID_188_" x="4.5" y="21" transform="matrix(0.9701 0.2428 -0.2428 0.9701 6.2295 -0.5268)" class="st0" width="1.5" height="8.1"/>
	
		<rect id="XMLID_187_" x="11.4" y="8.2" transform="matrix(0.7591 0.651 -0.651 0.7591 11.2067 -4.8294)" class="st0" width="1.5" height="9.1"/>
	<rect id="XMLID_186_" x="31" y="7.3" class="st0" width="1.5" height="7.9"/>
	
		<rect id="XMLID_185_" x="47.1" y="42.4" transform="matrix(0.8944 0.4472 -0.4472 0.8944 24.6372 -17.9997)" class="st0" width="6.6" height="1.5"/>
	
		<rect id="XMLID_184_" x="12.3" y="39.9" transform="matrix(0.4472 0.8944 -0.8944 0.4472 45.8674 12.1422)" class="st0" width="1.5" height="6.6"/>
	
		<rect id="XMLID_183_" x="9.8" y="20.8" transform="matrix(0.8944 0.4472 -0.4472 0.8944 11.0293 -3.5863)" class="st0" width="6.6" height="1.5"/>
	
		<rect id="XMLID_182_" x="49.7" y="17.6" transform="matrix(0.4472 0.8944 -0.8944 0.4472 46.5454 -33.5802)" class="st0" width="1.5" height="6.6"/>
	<path id="XMLID_179_" class="st0" d="M56.3,21.8c-2,0-3.7-1.7-3.7-3.7s1.7-3.7,3.7-3.7c2,0,3.7,1.7,3.7,3.7S58.4,21.8,56.3,21.8z
		 M56.3,15.9c-1.2,0-2.2,1-2.2,2.2c0,1.2,1,2.2,2.2,2.2c1.2,0,2.2-1,2.2-2.2C58.5,16.9,57.5,15.9,56.3,15.9z"/>
	<path id="XMLID_176_" class="st0" d="M46.5,11c-2,0-3.7-1.7-3.7-3.7s1.7-3.7,3.7-3.7c2,0,3.7,1.7,3.7,3.7S48.6,11,46.5,11z
		 M46.5,5.1c-1.2,0-2.2,1-2.2,2.2s1,2.2,2.2,2.2c1.2,0,2.2-1,2.2-2.2S47.7,5.1,46.5,5.1z"/>
	<path id="XMLID_173_" class="st0" d="M59.3,35.6c-2,0-3.7-1.7-3.7-3.7s1.7-3.7,3.7-3.7s3.7,1.7,3.7,3.7S61.3,35.6,59.3,35.6z
		 M59.3,29.7c-1.2,0-2.2,1-2.2,2.2c0,1.2,1,2.2,2.2,2.2s2.2-1,2.2-2.2C61.5,30.7,60.5,29.7,59.3,29.7z"/>
	<path id="XMLID_170_" class="st0" d="M7.2,49.3c-2,0-3.7-1.7-3.7-3.7s1.7-3.7,3.7-3.7s3.7,1.7,3.7,3.7S9.3,49.3,7.2,49.3z
		 M7.2,43.4c-1.2,0-2.2,1-2.2,2.2s1,2.2,2.2,2.2s2.2-1,2.2-2.2S8.4,43.4,7.2,43.4z"/>
	<path id="XMLID_167_" class="st0" d="M17,60.1c-2,0-3.7-1.7-3.7-3.7c0-2,1.7-3.7,3.7-3.7c2,0,3.7,1.7,3.7,3.7
		C20.7,58.5,19.1,60.1,17,60.1z M17,54.3c-1.2,0-2.2,1-2.2,2.2c0,1.2,1,2.2,2.2,2.2c1.2,0,2.2-1,2.2-2.2
		C19.2,55.2,18.2,54.3,17,54.3z"/>
	<path id="XMLID_164_" class="st0" d="M7.2,21.8c-2,0-3.7-1.7-3.7-3.7s1.7-3.7,3.7-3.7s3.7,1.7,3.7,3.7S9.3,21.8,7.2,21.8z
		 M7.2,15.9c-1.2,0-2.2,1-2.2,2.2c0,1.2,1,2.2,2.2,2.2s2.2-1,2.2-2.2C9.4,16.9,8.4,15.9,7.2,15.9z"/>
	<path id="XMLID_161_" class="st0" d="M17,11c-2,0-3.7-1.7-3.7-3.7S15,3.6,17,3.6c2,0,3.7,1.7,3.7,3.7S19.1,11,17,11z M17,5.1
		c-1.2,0-2.2,1-2.2,2.2s1,2.2,2.2,2.2c1.2,0,2.2-1,2.2-2.2S18.2,5.1,17,5.1z"/>
	<path id="XMLID_158_" class="st0" d="M4.3,35.6c-2,0-3.7-1.7-3.7-3.7s1.7-3.7,3.7-3.7c2,0,3.7,1.7,3.7,3.7S6.3,35.6,4.3,35.6z
		 M4.3,29.7c-1.2,0-2.2,1-2.2,2.2c0,1.2,1,2.2,2.2,2.2c1.2,0,2.2-1,2.2-2.2C6.5,30.7,5.5,29.7,4.3,29.7z"/>
	<path id="XMLID_154_" class="st0" d="M31.8,15.7l-15.3,7.6v18.1l15.3,7.1l15.3-7.1V22.6L31.8,15.7z M28.8,41.3l0.1-0.2
		c0.2-0.4,0.1-0.8-0.3-1l-4.3-2.4c-1.4-0.8-1.9-2.5-1.1-3.9l2.1-3.6l-0.1,0.1c0,0,0,0,0,0.1c0,0,0,0,0-0.1l0.1-0.1l0-0.1l3.2-5.4
		l0,0l0.4-0.7c0,0,0,0,0-0.1c1.1-2,0.4-3,0.4-3l0.7,0.4l1.5,0.9c0.4,0.3,0.8,0.6,1.3,0.9l-6.3,10.6c-0.5,0.8-0.2,1.8,0.5,2.3
		c-0.1,0-0.1-0.1-0.2-0.2c0,0,0,0-0.1-0.1c0,0-0.1-0.1-0.1-0.1c0,0-0.1,0-0.1-0.1c-0.1,0-0.1-0.1-0.2-0.2c0,0-0.1-0.1-0.1-0.1
		c0,0,0,0,0,0c0,0,0,0,0,0c0,0,0,0,0,0c0,0,0,0,0,0c0,0,0.1,0.1,0.1,0.1c0.1,0.1,0.1,0.1,0.2,0.2c0,0,0.1,0,0.1,0.1
		c0,0,0.1,0.1,0.1,0.1c0,0,0.1,0,0.1,0.1c0.1,0.1,0.2,0.1,0.2,0.2c0,0,0.1,0,0.1,0.1c0,0,0.1,0,0.1,0c0,0,0,0,0,0l6.6,3.6
		c1.4,0.8,1.4,1.6,1.4,1.6H28.8z M37.7,31.9c-0.1-0.8-0.7-1.6-1.6-2.1l-0.9-0.5c0,0,0,0,0,0c0,0-0.1,0-0.1,0c-0.5-0.2-0.5-0.2,0,0
		c-0.3-0.1-0.7,0-0.9,0.3l-0.3,0.4l-1.7,2.9c-0.2,0.4-0.1,0.8,0.3,1l1.4,0.8l0.5,0.3l1.4,0.8c0.7,0.4,1.2,1,1.5,1.7
		c0.2,0.5,0.3,1,0.3,1.5c0,0.9-0.3,1.7-0.7,2.3c0-1.1-0.7-2.1-1.9-2.8l-0.8-0.5l-0.8-0.5l-0.4-0.2l-1.3-0.7l-3.2-1.8
		c-0.3-0.2-0.4-0.5-0.2-0.8l2.4-4.1c0,0,0,0,0,0c0,0,0,0,0,0l3.6-6.1c0.2,0.2,0.4,0.4,0.6,0.5c0.6,0.6,1.1,1.2,1.6,1.8
		C37.6,27.9,38.3,29.9,37.7,31.9z"/>
</g>
</svg>
