<?xml version="1.0" encoding="utf-8"?>
<!-- Generator: Adobe Illustrator 19.0.0, SVG Export Plug-In . SVG Version: 6.00 Build 0)  -->
<svg version="1.1" id="Layer_1" xmlns="http://www.w3.org/2000/svg" xmlns:xlink="http://www.w3.org/1999/xlink" x="0px" y="0px"
	 viewBox="0 0 312 312" style="enable-background:new 0 0 312 312;" xml:space="preserve">
<style type="text/css">
	.st0{fill:#FCB013;}
	.st1{fill:url(#XMLID_2_);}
	.st2{fill:url(#XMLID_3_);}
	.st3{fill:url(#XMLID_4_);}
	.st4{fill:url(#XMLID_5_);}
	.st5{fill:#666666;}
	.st6{fill:url(#XMLID_6_);}
</style>
<g id="XMLID_663_">
	<g id="XMLID_673_">
		<path id="XMLID_675_" class="st0" d="M200.6,188.8h-58.8l1.5-2c2-3.1,1-7.2-2.6-9.2l-39.4-22c-12.8-7.2-16.9-23-9.7-35.3
			l19.4-32.7l0.5-0.5l28.6-49.1v-0.5l4.1-6.6c0,0,0-0.5,0.5-0.5c10.2-17.9,3.6-27.6,3.6-27.6l6.6,3.6l13.3,7.7
			c3.6,2.6,7.7,5.1,11.3,8.2l-57.3,96.7c-4.1,7.2-2,15.9,4.1,20.5c0.5,0,0.5,0.5,1,0.5c0.5,0,0.5,0.5,0.5,0.5l0,0l59.8,33.2
			C200.6,180.6,200.6,188.8,200.6,188.8z"/>
		<path id="XMLID_674_" class="st0" d="M172,112c-2,3.1-1,7.2,2.6,9.2l12.3,7.2l4.6,2.6l12.8,7.2c6.1,3.1,10.7,9.2,13.3,15.3
			c1.5,4.1,2.6,9.2,2.6,13.8c0,8.2-2.6,15.3-6.6,21c0-9.7-6.1-18.9-16.9-25.1l-7.7-4.1l-7.2-4.1l-3.1-2l-11.8-6.6l-29.7-16.4
			c-2.6-1.5-3.6-4.6-2-7.2l22.5-37.3l0,0l32.7-55.2c2,1.5,3.6,3.1,5.1,5.1c5.1,5.1,10.2,10.7,14.8,16.9
			c10.7,14.8,16.9,32.2,12.3,51.1c-1.5-7.7-6.6-14.3-14.8-18.9l-8.7-4.6c0,0,0,0-0.5,0c0,0-0.5,0-1-0.5c-3.1-1-6.6,0-8.7,3.1
			l-2.6,3.6L172,112z"/>
	</g>
	<g id="XMLID_668_">
		
			<linearGradient id="XMLID_2_" gradientUnits="userSpaceOnUse" x1="224.3535" y1="66.6803" x2="157.5506" y2="66.6803" gradientTransform="matrix(1 0 0 1 0 0.11)">
			<stop  offset="0" style="stop-color:#C1272D"/>
			<stop  offset="0.85" style="stop-color:#C1272D;stop-opacity:0"/>
		</linearGradient>
		<path id="XMLID_672_" class="st1" d="M222.6,103.4c-1.5-7.7-6.6-14.3-14.8-18.9l-8.7-4.6c0,0,0,0-0.5,0c0,0-0.5,0-1-0.5
			c-5.6-2-30.7-10.7-40.9,6.1l32.7-55.2c2,1.5,3.6,3.1,5.6,5.1c5.1,5.1,10.2,10.7,14.8,16.9C221.1,67,227.7,84.4,222.6,103.4z"/>
		
			<linearGradient id="XMLID_3_" gradientUnits="userSpaceOnUse" x1="177.4973" y1="74.9707" x2="177.4973" y2="188.4857" gradientTransform="matrix(1 0 0 1 0 0.11)">
			<stop  offset="0" style="stop-color:#C1272D"/>
			<stop  offset="0.85" style="stop-color:#C1272D;stop-opacity:0"/>
		</linearGradient>
		<path id="XMLID_671_" class="st2" d="M220.6,167.3c0,8.2-2.6,15.3-6.6,21c0-9.7-6.1-18.9-16.9-25.1l-7.7-4.1l-7.7-4.1l-3.1-2
			l-11.8-6.6l-29.7-16.4c-2.6-1.5-3.6-4.6-2-7.2l22.5-37.3l0,0c10.2-16.9,34.8-8.7,40.9-6.1c-3.1-1-6.6,0-8.7,3.1l-2.6,3.6L172,112
			c-2,3.1-1,7.2,2.6,9.2l12.8,7.2l4.6,2.6l12.8,7.2c6.1,3.1,10.7,9.2,13.3,15.3C219.5,157.6,220.6,162.7,220.6,167.3z"/>
		
			<linearGradient id="XMLID_4_" gradientUnits="userSpaceOnUse" x1="106.0176" y1="70.7714" x2="179.8904" y2="70.7714" gradientTransform="matrix(1 0 0 1 0 0.11)">
			<stop  offset="0" style="stop-color:#C1272D"/>
			<stop  offset="0.85" style="stop-color:#C1272D;stop-opacity:0"/>
		</linearGradient>
		<path id="XMLID_670_" class="st3" d="M126.5,139.7c-0.5-0.5-1-1-2-1.5l-0.5-0.5c-0.5-0.5-0.5-0.5-1-1l-0.5-0.5
			c-0.5-0.5-1-1-1.5-1.5s-1-0.5-1-1l0,0l-0.5-0.5c-9.7-8.7-18.9-24-8.7-44.5l1-1.5l0.5-0.5l28.6-49.1v-0.5l4.1-6.6
			c0,0,0-0.5,0.5-0.5C155.6,11.8,149,2.1,149,2.1l6.6,3.6l13.3,7.7c3.6,2.6,7.7,5.1,11.3,8.2l-57.8,97.2
			C118.3,125.9,120.3,135.1,126.5,139.7z"/>
		
			<linearGradient id="XMLID_5_" gradientUnits="userSpaceOnUse" x1="143.8883" y1="188.5432" x2="143.8883" y2="87.211" gradientTransform="matrix(1 0 0 1 0 0.11)">
			<stop  offset="0" style="stop-color:#C1272D"/>
			<stop  offset="0.8513" style="stop-color:#C1272D;stop-opacity:0"/>
		</linearGradient>
		<path id="XMLID_669_" class="st4" d="M143.3,186.2c2-3.1,1-7.2-2.6-9.2l-39.4-22c-12.8-7.2-16.9-23-9.7-35.3L111.1,87l-0.5,1.5
			c-10.2,21,0,36.3,8.7,45l0,0c0.5,0.5,1,1,1,1c0.5,0.5,1,1,1.5,1.5l0.5,0.5c0.5,0.5,1,0.5,1,1l0.5,0.5c1,0.5,1.5,1,2,1.5
			c0.5,0,0.5,0.5,1,0.5s0.5,0.5,0.5,0.5l0,0l59.8,33.2c12.3,7.2,12.3,14.8,12.3,14.8h-57.8L143.3,186.2z"/>
	</g>
	<g id="XMLID_664_">
		<path id="XMLID_667_" class="st5" d="M241.5,202.1c0,0-1,18.4-33.2,18.4h-8.2c-18.9,0-34.3,15.3-34.3,34.3v45l-22,12.3v-38.4
			c0-1,0-2.6,0-3.6c-0.5-33.8-10.7-48.6-38.9-67.5h136.5V202.1z"/>
		<path id="XMLID_666_" class="st5" d="M203.2,234.8v44.5l-23,12.8v-33.8C180.2,245,190.4,234.8,203.2,234.8z"/>
		
			<linearGradient id="XMLID_6_" gradientUnits="userSpaceOnUse" x1="166.0733" y1="228.2784" x2="241.5549" y2="228.2784" gradientTransform="matrix(1 0 0 1 0 0.11)">
			<stop  offset="0" style="stop-color:#333333"/>
			<stop  offset="0.8" style="stop-color:#333333;stop-opacity:0"/>
		</linearGradient>
		<path id="XMLID_665_" class="st6" d="M241.5,202.1c0,0-1,18.4-33.2,18.4h-8.2c-18.9,0-34.3,15.3-34.3,34.3c0,0-1-52.7,30.2-52.7
			H241.5z"/>
	</g>
</g>
</svg>
