<?xml version="1.0" encoding="utf-8"?>
<!-- Generator: Adobe Illustrator 19.0.0, SVG Export Plug-In . SVG Version: 6.00 Build 0)  -->
<svg version="1.1" id="Слой_1" xmlns="http://www.w3.org/2000/svg" xmlns:xlink="http://www.w3.org/1999/xlink" x="0px" y="0px"
	 viewBox="0 0 1700.8 1133.9" style="enable-background:new 0 0 1700.8 1133.9;" xml:space="preserve">
<style type="text/css">
	.st0{opacity:0.14;fill:url(#SVGID_1_);}
	.st1{opacity:0.2;}
	.st2{opacity:0.14;fill:url(#SVGID_2_);}
	.st3{opacity:0.14;}
	.st4{fill:url(#SVGID_3_);}
	.st5{fill:url(#SVGID_4_);}
	.st6{fill:url(#SVGID_5_);}
	.st7{fill:url(#SVGID_6_);}
	.st8{fill:#FFFFFF;}
	.st9{fill:url(#SVGID_7_);}
	.st10{fill:url(#SVGID_8_);}
	.st11{fill:url(#SVGID_9_);}
	.st12{fill:url(#SVGID_10_);}
	.st13{opacity:0.14;fill:url(#SVGID_11_);}
	.st14{fill:#8E8E8E;}
	.st15{fill:#5E5E5E;}
</style>
<g>
	<linearGradient id="SVGID_1_" gradientUnits="userSpaceOnUse" x1="535.5258" y1="1058.4847" x2="535.5258" y2="607.4995">
		<stop  offset="0" style="stop-color:#9D9D9C"/>
		<stop  offset="6.032306e-002" style="stop-color:#A2A2A1"/>
		<stop  offset="0.3799" style="stop-color:#B6B6B5"/>
		<stop  offset="0.6954" style="stop-color:#C2C2C2"/>
		<stop  offset="1" style="stop-color:#C6C6C6"/>
	</linearGradient>
	<path class="st0" d="M932.2,803.1c-47.8,0-63.5,42-119.4,42c-72.6,0-132.3-117.6-203.7-117.6c-66.3,0-90,92.7-165.3,92.7
		c-80.1,0-193-212.7-304-212.7c-54.5,0-97.8,46.3-139.9,94.9v290.4c17.4-5.1,39.4-9.3,60.1-9.3c72.7,0,123.4,70.9,194,69.4
		c106.2-2.2,126.6-40.2,212.8-45.1c98.9-5.7,161.9,50.4,269.1,50.6c94.2,0.2,85.4-26.2,170.4-35c1.5-0.2,2.9-0.3,4.3-0.3
		c0-31.6,0.1-59.2,0.1-67.3c0-5.9,1.8-9,8.2-9c7.6,0,6.7,0.1,11.9,0.1c5.5,0,5.9-3.5,5.9-7.5c0-4.7-0.1-15.4-0.1-21.2
		c0-6.1,6.1-5.5,11.2-5.5c11.5-0.1,27.4-0.2,42.2-0.3c0,0,0,0-0.1,0c-0.3,0,4.5,0,9.9,0c4.3,0,8.3,0,12,0c1.6,0,2.7,0.2,3.5,0.7
		c0,0,0,0,0,0c0.1,0.1,0.2,0.2,0.4,0.2c0,0,0.1,0,0.1,0.1c0.1,0.1,0.2,0.2,0.3,0.2c0,0,0.1,0.1,0.1,0.1c0.1,0.1,0.1,0.2,0.2,0.2
		c0,0,0.1,0.1,0.1,0.1c0,0.1,0.1,0.2,0.1,0.2c0,0.1,0.1,0.1,0.1,0.2c0,0.1,0.1,0.2,0.1,0.2c0,0.1,0.1,0.1,0.1,0.2
		c0,0.1,0,0.1,0.1,0.2c0,0.1,0,0.2,0.1,0.3c0,0.1,0,0.1,0,0.2c0,0.1,0,0.2,0,0.3c0,0.1,0,0.1,0,0.2c0,0.1,0,0.2,0,0.4
		c0,0,0,0.1,0,0.1c0,0.1,0,0.3,0,0.5c0,0,0,0,0,0c0,0.3,0,0.6,0,0.9v10.7c0,8.2,0,17.4,0,22.9c0,1.3,1,4.8,4.5,4.8
		c9.9,0,33.2-0.3,44-0.3c2.3,0,5.4-2.5,5.4-5.3c0-4.8,0-28.3,0-51.9c-0.8-0.9-1.6-1.7-2.3-2.5C1006.5,828.9,975.5,803.1,932.2,803.1
		z"/>
	<g class="st1">
		<linearGradient id="SVGID_2_" gradientUnits="userSpaceOnUse" x1="535.5258" y1="1058.4847" x2="535.5258" y2="607.4995">
			<stop  offset="0" style="stop-color:#9D9D9C"/>
			<stop  offset="6.032306e-002" style="stop-color:#A2A2A1"/>
			<stop  offset="0.3799" style="stop-color:#B6B6B5"/>
			<stop  offset="0.6954" style="stop-color:#C2C2C2"/>
			<stop  offset="1" style="stop-color:#C6C6C6"/>
		</linearGradient>
		<path class="st2" d="M932.2,803.1c-47.8,0-63.5,42-119.4,42c-72.6,0-132.3-117.6-203.7-117.6c-66.3,0-90,92.7-165.3,92.7
			c-80.1,0-193-212.7-304-212.7c-54.5,0-97.8,46.3-139.9,94.9v290.4c17.4-5.1,39.4-9.3,60.1-9.3c72.7,0,123.4,70.9,194,69.4
			c106.2-2.2,126.6-40.2,212.8-45.1c98.9-5.7,161.9,50.4,269.1,50.6c94.2,0.2,85.4-26.2,170.4-35c1.5-0.2,2.9-0.3,4.3-0.3
			c0-31.6,0.1-59.2,0.1-67.3c0-5.9,1.8-9,8.2-9c7.6,0,6.7,0.1,11.9,0.1c5.5,0,5.9-3.5,5.9-7.5c0-4.7-0.1-15.4-0.1-21.2
			c0-6.1,6.1-5.5,11.2-5.5c11.5-0.1,27.4-0.2,42.2-0.3c0,0,0,0-0.1,0c-0.3,0,4.5,0,9.9,0c4.3,0,8.3,0,12,0c1.6,0,2.7,0.2,3.5,0.7
			c0,0,0,0,0,0c0.1,0.1,0.2,0.2,0.4,0.2c0,0,0.1,0,0.1,0.1c0.1,0.1,0.2,0.2,0.3,0.2c0,0,0.1,0.1,0.1,0.1c0.1,0.1,0.1,0.2,0.2,0.2
			c0,0,0.1,0.1,0.1,0.1c0,0.1,0.1,0.2,0.1,0.2c0,0.1,0.1,0.1,0.1,0.2c0,0.1,0.1,0.2,0.1,0.2c0,0.1,0.1,0.1,0.1,0.2
			c0,0.1,0,0.1,0.1,0.2c0,0.1,0,0.2,0.1,0.3c0,0.1,0,0.1,0,0.2c0,0.1,0,0.2,0,0.3c0,0.1,0,0.1,0,0.2c0,0.1,0,0.2,0,0.4
			c0,0,0,0.1,0,0.1c0,0.1,0,0.3,0,0.5c0,0,0,0,0,0c0,0.3,0,0.6,0,0.9v10.7c0,8.2,0,17.4,0,22.9c0,1.3,1,4.8,4.5,4.8
			c9.9,0,33.2-0.3,44-0.3c2.3,0,5.4-2.5,5.4-5.3c0-4.8,0-28.3,0-51.9c-0.8-0.9-1.6-1.7-2.3-2.5
			C1006.5,828.9,975.5,803.1,932.2,803.1z"/>
	</g>
</g>
<g class="st3">
	<g>
		<linearGradient id="SVGID_3_" gradientUnits="userSpaceOnUse" x1="1305.7473" y1="702.2959" x2="1305.7473" y2="1133.8599">
			<stop  offset="0" style="stop-color:#1D1D1B"/>
			<stop  offset="6.825441e-002" style="stop-color:#333331"/>
			<stop  offset="0.2262" style="stop-color:#5F5F5E"/>
			<stop  offset="0.3852" style="stop-color:#848484"/>
			<stop  offset="0.5429" style="stop-color:#A1A1A1"/>
			<stop  offset="0.6987" style="stop-color:#B6B6B5"/>
			<stop  offset="0.8521" style="stop-color:#C2C2C2"/>
			<stop  offset="1" style="stop-color:#C6C6C6"/>
		</linearGradient>
		<path class="st4" d="M1700.8,1133.9c0-16.6,0-173.6,0-185.1c0-6.4-1.1-5.9-7.6-5.9c-7.6,0-52,0-59.3,0c-4.6,0-7.6-1.7-7.6-7.1
			c0-7.2,0-27.1,0-34.3c0-4.6-1.6-8.5-8.6-8.5c-7,0-46.8,0-53.7,0c-8.5,0-15.2,2.7-15.2,10.4c0,8.5,0,54.2,0,63.3c0,4.3-0.5,6-6.8,6
			c-5.6,0-12.5,0-19.4,0c-6.3,0-7.9-4.9-7.9-10.4c0.1-8.3,0-141.1,0-146.7c0-5.7-1.1-6.5-5.5-6.5c-8.1,0-38,0-46,0
			c-5.1,0-8.9-1.8-8.9-5.7c0-7.2,0-35.9,0-43.1c0-7.5-1.3-10.8-7.6-10.8c-5.3,0-38.3,0-54.6,0c-7.3,0-8.2,4.5-8.2,12
			c0,6.4,0.2,52.8,0.2,69c0,3.1-1.1,5.3-4,5.3c-8.8,0-12,0.2-16.1,0.2c-5.4,0-5.5-2.9-5.5-8.5c0-8.6-1.5-105.1-1.5-114.5
			c0-7.8-1.2-10.6-7.9-10.6c-6.9,0-60,0-69.2,0c-5.2,0-6.5,5.5-6.5,8.3c0,13,1.8,71,1.8,82.4c0,3.2-2.3,4.5-4.8,4.5
			c-4.9,0-10.8,0-16.9,0c-2.3,0-4.1-1.8-4.2-4l-0.7-48.4c0-2.4-2-4.4-4.5-4.4l-50.6,1c-2.9,0.1-5.3,2.5-5.3,5.4
			c0,23.8-0.1,120.5-0.1,140c0,3.1-0.8,4.4-3.7,4.4c-1.7,0-10.9,0-15.5,0c-1.6,0-2.8-0.5-2.8-2.2c0-3.8,0-7.1,0-11.6
			c0-3.8-1.5-4.1-5.8-4.1c-2.7,0-11.6,0-16.8,0c-2.1,0-3.9-1.7-3.9-3.8c-0.1-6.1-0.4-17.9-0.4-21.6c0-1-0.6-3.8-3.4-3.8
			c-14.3,0-43.6,0.3-59.6,0.3c-4.1,0-5.4,1.7-5.4,6.7c0,21.5,0.1,90.7,0.1,99.2c0,2.8-3.2,5.3-5.4,5.3c-10.7,0-34.1,0.3-44,0.3
			c-3.5,0-4.5-3.5-4.5-4.8c0-8,0-24.2,0-33.3c0-3.3,0.1-5.9-5.2-5.9c-18.2,0-46.3,0.1-64,0.3c-5.1,0.1-11.2-0.6-11.2,5.5
			c0,5.8,0.1,16.6,0.1,21.2c0,4-0.4,7.5-5.9,7.5c-5.2,0-4.3-0.1-11.9-0.1c-6.4,0-8.2,3.1-8.2,9c0,18.8-0.2,142.4,0,178.1h520.3l0,0
			H1700.8z"/>
		<g>
			<g>
				<linearGradient id="SVGID_4_" gradientUnits="userSpaceOnUse" x1="1348.6489" y1="913.3625" x2="1348.6489" y2="1344.9189">
					<stop  offset="0" style="stop-color:#3C3C3B"/>
					<stop  offset="6.971443e-002" style="stop-color:#4B4B4B"/>
					<stop  offset="0.2594" style="stop-color:#707070"/>
					<stop  offset="0.4492" style="stop-color:#8D8D8D"/>
					<stop  offset="0.637" style="stop-color:#A2A2A1"/>
					<stop  offset="0.8217" style="stop-color:#AEAEAE"/>
					<stop  offset="1" style="stop-color:#B2B2B2"/>
				</linearGradient>
				<path class="st5" d="M1358.6,827.4v306.5h-19.9V702.3h10.5c6.7,0,7.9,2.8,7.9,10.6C1357.1,722.3,1358.6,818.8,1358.6,827.4z"/>
				<linearGradient id="SVGID_5_" gradientUnits="userSpaceOnUse" x1="1003.6295" y1="912.2058" x2="1003.6295" y2="1133.8551">
					<stop  offset="0" style="stop-color:#3C3C3B"/>
					<stop  offset="6.971443e-002" style="stop-color:#4B4B4B"/>
					<stop  offset="0.2594" style="stop-color:#707070"/>
					<stop  offset="0.4492" style="stop-color:#8D8D8D"/>
					<stop  offset="0.637" style="stop-color:#A2A2A1"/>
					<stop  offset="0.8217" style="stop-color:#AEAEAE"/>
					<stop  offset="1" style="stop-color:#B2B2B2"/>
				</linearGradient>
				<path class="st6" d="M1017.1,917.8v216h-23.2V918.1c0-3.6,0.1-5.7-3.8-5.8c-0.6,0,16,0,21.8,0
					C1017.1,912.2,1017.1,914.7,1017.1,917.8z"/>
				<linearGradient id="SVGID_6_" gradientUnits="userSpaceOnUse" x1="1271.2401" y1="891.545" x2="1271.2401" y2="1133.86">
					<stop  offset="0" style="stop-color:#3C3C3B"/>
					<stop  offset="6.971443e-002" style="stop-color:#4B4B4B"/>
					<stop  offset="0.2594" style="stop-color:#707070"/>
					<stop  offset="0.4492" style="stop-color:#8D8D8D"/>
					<stop  offset="0.637" style="stop-color:#A2A2A1"/>
					<stop  offset="0.8217" style="stop-color:#AEAEAE"/>
					<stop  offset="1" style="stop-color:#B2B2B2"/>
				</linearGradient>
				<rect x="1249.5" y="891.5" class="st7" width="43.5" height="242.3"/>
				<path class="st8" d="M1248.2,895.3h-80.7c-0.7,0-1.3-0.6-1.3-1.3v-1.2c0-0.7,0.6-1.3,1.3-1.3h80.7c0.7,0,1.3,0.6,1.3,1.3v1.2
					C1249.5,894.8,1248.9,895.3,1248.2,895.3z"/>
				<path class="st8" d="M1109.3,863.5h-36.7c-0.9,0-1.6-0.7-1.6-1.6v-4.3c0-0.9,0.7-1.6,1.6-1.6h36.7c0.9,0,1.6,0.7,1.6,1.6v4.3
					C1110.9,862.8,1110.2,863.5,1109.3,863.5z"/>
			</g>
			<linearGradient id="SVGID_7_" gradientUnits="userSpaceOnUse" x1="1130.5361" y1="844.3247" x2="1130.5361" y2="1133.8551">
				<stop  offset="0" style="stop-color:#3C3C3B"/>
				<stop  offset="6.971443e-002" style="stop-color:#4B4B4B"/>
				<stop  offset="0.2594" style="stop-color:#707070"/>
				<stop  offset="0.4492" style="stop-color:#8D8D8D"/>
				<stop  offset="0.637" style="stop-color:#A2A2A1"/>
				<stop  offset="0.8217" style="stop-color:#AEAEAE"/>
				<stop  offset="1" style="stop-color:#B2B2B2"/>
			</linearGradient>
			<path class="st9" d="M1139.7,869.9v264h-14.6V848.4c0-1.7-0.4-3.9-3.4-4c-2.9-0.1,12.1-0.1,14.2-0.1c2.8,0.1,3.4,2.9,3.4,3.8
				C1139.4,852,1139.6,863.7,1139.7,869.9z"/>
		</g>
		<path class="st8" d="M1273.8,802.4h-57.2c-0.9,0-1.6-0.7-1.6-1.6v-1.7c0-0.9,0.7-1.6,1.6-1.6h57.2c0.9,0,1.6,0.7,1.6,1.6v1.7
			C1275.4,801.7,1274.7,802.4,1273.8,802.4z"/>
		<linearGradient id="SVGID_8_" gradientUnits="userSpaceOnUse" x1="1495.3975" y1="809.111" x2="1495.3975" y2="1237.6238">
			<stop  offset="0" style="stop-color:#3C3C3B"/>
			<stop  offset="6.971443e-002" style="stop-color:#4B4B4B"/>
			<stop  offset="0.2594" style="stop-color:#707070"/>
			<stop  offset="0.4492" style="stop-color:#8D8D8D"/>
			<stop  offset="0.637" style="stop-color:#A2A2A1"/>
			<stop  offset="0.8217" style="stop-color:#AEAEAE"/>
			<stop  offset="1" style="stop-color:#B2B2B2"/>
		</linearGradient>
		<rect x="1476.2" y="809.1" class="st10" width="38.4" height="324.7"/>
	</g>
	<linearGradient id="SVGID_9_" gradientUnits="userSpaceOnUse" x1="-360.7725" y1="1058.6969" x2="1706.9154" y2="1058.6969">
		<stop  offset="0" style="stop-color:#9D9D9C"/>
		<stop  offset="1" style="stop-color:#CBCCCE"/>
	</linearGradient>
	<path class="st11" d="M0,1133.9h1293c-9.4-38.6-90.6-92.5-215.9-71.1c-54.3,9.3-110.6-45.6-170.8-39.3c-85,8.9-76.2,35.3-170.4,35
		c-107.2-0.2-170.1-56.3-269.1-50.6c-86.3,4.9-106.6,42.9-212.8,45.1c-70.5,1.5-121.3-69.4-194-69.4c-20.7,0-42.7,4.2-60.1,9.3
		V1133.9z"/>
	<linearGradient id="SVGID_10_" gradientUnits="userSpaceOnUse" x1="0" y1="1104.433" x2="604.4498" y2="1104.433">
		<stop  offset="0" style="stop-color:#575756"/>
		<stop  offset="8.348632e-002" style="stop-color:#5C5C5B"/>
		<stop  offset="0.6733" style="stop-color:#7B7B7B"/>
		<stop  offset="1" style="stop-color:#878787"/>
	</linearGradient>
	<path class="st12" d="M0,1133.9h990.1c-173.1-36-207.6-45-281.5-40.4c-68.9,4.2-86.3,13.9-162,13.9c-75.5,0-120.1-34.2-189.8-32.3
		c-60.8,1.7-88.7,26-163.6,26.8c-49.7,0.5-80.3-24.4-138.6-24.4c-15.1,0-36.8,2-54.8,4.6V1133.9z"/>
</g>
<linearGradient id="SVGID_11_" gradientUnits="userSpaceOnUse" x1="293.95" y1="916.84" x2="293.95" y2="617.6996">
	<stop  offset="0" style="stop-color:#706F6F"/>
	<stop  offset="6.574452e-003" style="stop-color:#717070"/>
	<stop  offset="0.2601" style="stop-color:#8D8D8D"/>
	<stop  offset="0.5122" style="stop-color:#A2A1A1"/>
	<stop  offset="0.7604" style="stop-color:#AEAEAE"/>
	<stop  offset="1" style="stop-color:#B2B2B2"/>
</linearGradient>
<path class="st13" d="M443.8,820.2c-80.1,0-193-212.7-304-212.7c-53.9,0,8.6,31.8,59.2,55.2c21.2,9.8,19.6,24.9-10.7,31.2
	c-39.4,8.2-29.7,25.8,15,44c51.1,20.8,98.5,38,94.5,55.6c-3.8,17.2-33.4,12.8-35.3,27.6c-1.7,13.6,63.6,26.4,84,67.6
	c13.3,26.9,52.1,20.8,54.3,0c1.4-13.5,6.1-25.7,35.9-36C471.2,840.7,483.9,820.2,443.8,820.2z"/>
<g class="st3">
	<path class="st14" d="M99.7,1069.6c-7.9-13.7-17.8-28.1-30.8-19.7c-7.5,4.8-2.5,21.6-10.4,32.8c-10.8,15.4-5.4,43.3,22.4,43.3
		C118,1126,106.4,1081.1,99.7,1069.6z"/>
	<path class="st15" d="M99.7,1069.6c-7.5-13-16.8-26.7-29-20.8c0,0.1,0.1,0.1,0.1,0.2c3.1,4.8,11.3,4.2,19,16.2
		c3.3,5.3,5.2,9.1,0.6,18c-6.1,11.5,3.2,19.2-1.1,25.3c-7,9.7-25.6,10.5-21.5,15c3.6,1.7,8,2.6,13.2,2.6
		C118,1126,106.4,1081.1,99.7,1069.6z"/>
</g>
<g class="st3">
	<path class="st14" d="M222.4,1064.7c-3.2-7.6-3.8-15.4-2.9-23.1c1.6-13.7,1.4-27.4-7.4-41.2c-4.5-7-11.9-13.9-14.7-4.6
		c-1.8,5.9,2,21.1,2.4,32.2c0.4,10-3.6,18.4-6.2,23.9c-9.4,20-6.7,66.5,15.4,72.8C223.5,1128.9,237.6,1100.3,222.4,1064.7z"/>
	<path class="st15" d="M222.4,1064.7c-3.2-7.6-3.8-15.4-2.9-23.1c1.6-13.7,1.4-27.4-7.4-41.2c-3.8-5.9-9.5-11.6-12.9-7.9
		c7.2,2.8,12.1,17.4,14.5,31.8c1.7,10.5-3.8,22.8-5.5,35.4c-2.2,15.7,8.4,33.3-3.9,40.4c-3.8,2.2-5.5,9.6-5.3,17.6
		c2.8,3.4,6.2,5.9,10.3,7.1C223.5,1128.9,237.6,1100.3,222.4,1064.7z"/>
</g>
<g class="st3">
	<path class="st14" d="M188.1,1079.2c-3.1-4.2-4.3-8.7-2.4-12.7c5.3-11.1-13.4-27.3-23.6-14.2c-5.3,6.8,5.1,17.2-3,24
		c-10.7,9-12.2,34,14.3,36C187.8,1113.2,202.4,1098.7,188.1,1079.2z"/>
	<path class="st15" d="M188.1,1079.2c-3.1-4.2-4.3-8.7-2.4-12.7c4.1-8.6-6.1-20.2-15.7-19c3.7,1.9,9.1,4.6,10.8,8.7
		c3.7,8.9-5.1,11.6-4.9,18.8c0.3,11,9.6,12.9,5.9,21.3c-2.8,6.4-17.9,9.5-20.7,12.5c3.2,1.8,7.2,3,12.3,3.4
		C187.8,1113.2,202.4,1098.7,188.1,1079.2z"/>
</g>
<g class="st3">
	<path class="st14" d="M451.5,1129.8c18.6-5.2,20.9-44.4,13-61.2c-2.2-4.7-5.5-11.8-5.2-20.1c0.4-9.3,3.5-22.1,2-27.1
		c-2.4-7.9-8.5-2.1-12.3,3.8c-7.4,11.5-7.6,23.1-6.2,34.6c0.8,6.5,0.3,13-2.4,19.4C427.6,1109.2,439.4,1133.2,451.5,1129.8z"/>
	<path class="st15" d="M451.5,1129.8c3.4-1,6.3-3.1,8.6-6c0.1-6.8-1.3-13-4.5-14.8c-10.3-6-1.4-20.7-3.3-34
		c-1.5-10.6-6.1-20.9-4.6-29.8c2-12.1,6.1-24.3,12.2-26.7c-2.9-3.1-7.7,1.7-10.9,6.7c-7.4,11.5-7.6,23.1-6.3,34.6
		c0.8,6.5,0.3,13-2.4,19.4C427.6,1109.2,439.4,1133.2,451.5,1129.8z"/>
</g>
<g class="st3">
	<path class="st14" d="M624.9,1128.5c26.5-1.9,25-27,14.3-36c-8-6.7,2.3-17.2-3-24c-10.2-13.1-29,3.1-23.6,14.2
		c1.9,4,0.7,8.5-2.4,12.7C596,1115,610.5,1129.5,624.9,1128.5z"/>
	<path class="st15" d="M624.9,1128.5c5.1-0.4,9.1-1.6,12.3-3.4c-2.8-3.1-17.9-6.2-20.7-12.5c-3.7-8.4,5.6-10.3,5.9-21.3
		c0.2-7.2-8.6-9.9-4.9-18.8c1.7-4.1,7.1-6.8,10.8-8.7c-9.6-1.1-19.8,10.5-15.7,19c1.9,4,0.7,8.5-2.4,12.7
		C596,1115,610.5,1129.5,624.9,1128.5z"/>
</g>
</svg>
