<?xml version="1.0" encoding="utf-8"?>
<!-- Generator: Adobe Illustrator 19.0.0, SVG Export Plug-In . SVG Version: 6.00 Build 0)  -->
<svg version="1.1" id="Layer_1" xmlns="http://www.w3.org/2000/svg" xmlns:xlink="http://www.w3.org/1999/xlink" x="0px" y="0px"
	 viewBox="0 0 154.5 64" style="enable-background:new 0 0 154.5 64;" xml:space="preserve">
<style type="text/css">
	.st0{fill:#FCB013;}
	.st1{fill:url(#XMLID_15_);}
	.st2{fill:url(#XMLID_16_);}
	.st3{fill:url(#XMLID_17_);}
	.st4{fill:url(#XMLID_18_);}
	.st5{fill:#666666;}
	.st6{fill:url(#XMLID_19_);}
	.st7{fill:#FFFFFF;}
</style>
<g id="XMLID_649_">
	<g id="XMLID_663_">
		<g id="XMLID_673_">
			<path id="XMLID_675_" class="st0" d="M26.5,38.6H15l0.3-0.4c0.4-0.6,0.2-1.4-0.5-1.8l-7.7-4.3c-2.5-1.4-3.3-4.5-1.9-6.9L9,18.8
				l0.1-0.1l5.6-9.6l0-0.1l0.8-1.3c0,0,0-0.1,0.1-0.1c2-3.5,0.7-5.4,0.7-5.4l1.3,0.7l2.6,1.5c0.7,0.5,1.5,1,2.2,1.6L11.2,24.9
				c-0.8,1.4-0.4,3.1,0.8,4c0.1,0,0.1,0.1,0.2,0.1c0.1,0,0.1,0.1,0.1,0.1c0,0,0,0,0,0l11.7,6.5C26.5,37,26.5,38.6,26.5,38.6z"/>
			<path id="XMLID_674_" class="st0" d="M20.9,23.6c-0.4,0.6-0.2,1.4,0.5,1.8l2.4,1.4l0.9,0.5l2.5,1.4c1.2,0.6,2.1,1.8,2.6,3
				c0.3,0.8,0.5,1.8,0.5,2.7c0,1.6-0.5,3-1.3,4.1c0-1.9-1.2-3.7-3.3-4.9l-1.5-0.8L22.8,32l-0.6-0.4l-2.3-1.3l-5.8-3.2
				c-0.5-0.3-0.7-0.9-0.4-1.4l4.4-7.3c0,0,0,0,0,0l6.4-10.8c0.4,0.3,0.7,0.6,1,1c1,1,2,2.1,2.9,3.3c2.1,2.9,3.3,6.3,2.4,10
				c-0.3-1.5-1.3-2.8-2.9-3.7l-1.7-0.9c0,0,0,0-0.1,0c0,0-0.1,0-0.2-0.1c-0.6-0.2-1.3,0-1.7,0.6l-0.5,0.7L20.9,23.6z"/>
		</g>
		<g id="XMLID_668_">
			
				<linearGradient id="XMLID_15_" gradientUnits="userSpaceOnUse" x1="31.1502" y1="49.3449" x2="18.0871" y2="49.3449" gradientTransform="matrix(1 0 0 -1 0 64.11)">
				<stop  offset="0" style="stop-color:#C1272D"/>
				<stop  offset="0.85" style="stop-color:#C1272D;stop-opacity:0"/>
			</linearGradient>
			<path id="XMLID_672_" class="st1" d="M30.8,21.9c-0.3-1.5-1.3-2.8-2.9-3.7l-1.7-0.9c0,0,0,0-0.1,0c0,0-0.1,0-0.2-0.1
				c-1.1-0.4-6-2.1-8,1.2l6.4-10.8c0.4,0.3,0.7,0.6,1.1,1c1,1,2,2.1,2.9,3.3C30.5,14.8,31.8,18.2,30.8,21.9z"/>
			
				<linearGradient id="XMLID_16_" gradientUnits="userSpaceOnUse" x1="22.0082" y1="47.722" x2="22.0082" y2="25.5245" gradientTransform="matrix(1 0 0 -1 0 64.11)">
				<stop  offset="0" style="stop-color:#C1272D"/>
				<stop  offset="0.85" style="stop-color:#C1272D;stop-opacity:0"/>
			</linearGradient>
			<path id="XMLID_671_" class="st2" d="M30.4,34.4c0,1.6-0.5,3-1.3,4.1c0-1.9-1.2-3.7-3.3-4.9l-1.5-0.8L22.8,32l-0.6-0.4l-2.3-1.3
				l-5.8-3.2c-0.5-0.3-0.7-0.9-0.4-1.4l4.4-7.3c0,0,0,0,0,0c2-3.3,6.8-1.7,8-1.2c-0.6-0.2-1.3,0-1.7,0.6l-0.5,0.7l-3,5.1
				c-0.4,0.6-0.2,1.4,0.5,1.8l2.5,1.4l0.9,0.5l2.5,1.4c1.2,0.6,2.1,1.8,2.6,3C30.2,32.5,30.4,33.5,30.4,34.4z"/>
			
				<linearGradient id="XMLID_17_" gradientUnits="userSpaceOnUse" x1="8.0019" y1="48.5336" x2="22.4475" y2="48.5336" gradientTransform="matrix(1 0 0 -1 0 64.11)">
				<stop  offset="0" style="stop-color:#C1272D"/>
				<stop  offset="0.85" style="stop-color:#C1272D;stop-opacity:0"/>
			</linearGradient>
			<path id="XMLID_670_" class="st3" d="M12,29c-0.1-0.1-0.2-0.2-0.4-0.3c0,0-0.1-0.1-0.1-0.1c-0.1-0.1-0.1-0.1-0.2-0.2
				c0,0-0.1-0.1-0.1-0.1c-0.1-0.1-0.2-0.2-0.3-0.3c-0.1-0.1-0.2-0.1-0.2-0.2c0,0,0,0,0,0c0,0-0.1-0.1-0.1-0.1C8.7,26,6.9,23,8.9,19
				L9,18.8l0.1-0.1l5.6-9.6l0-0.1l0.8-1.3c0,0,0-0.1,0.1-0.1c2-3.5,0.7-5.4,0.7-5.4l1.3,0.7l2.6,1.5c0.7,0.5,1.5,1,2.2,1.6
				L11.2,24.9C10.4,26.3,10.8,28.1,12,29z"/>
			
				<linearGradient id="XMLID_18_" gradientUnits="userSpaceOnUse" x1="15.5186" y1="25.5301" x2="15.5186" y2="45.3453" gradientTransform="matrix(1 0 0 -1 0 64.11)">
				<stop  offset="0" style="stop-color:#C1272D"/>
				<stop  offset="0.8513" style="stop-color:#C1272D;stop-opacity:0"/>
			</linearGradient>
			<path id="XMLID_669_" class="st4" d="M15.3,38.1c0.4-0.6,0.2-1.4-0.5-1.8l-7.7-4.3c-2.5-1.4-3.3-4.5-1.9-6.9L9,18.8L8.9,19
				c-2,4.1,0,7.1,1.7,8.8c0,0,0,0,0,0c0.1,0.1,0.2,0.2,0.2,0.2c0.1,0.1,0.2,0.2,0.3,0.3c0,0,0.1,0.1,0.1,0.1
				c0.1,0.1,0.2,0.1,0.2,0.2c0,0,0.1,0.1,0.1,0.1c0.2,0.1,0.3,0.2,0.4,0.3c0.1,0,0.1,0.1,0.2,0.1c0.1,0,0.1,0.1,0.1,0.1c0,0,0,0,0,0
				l11.7,6.5c2.4,1.4,2.4,2.9,2.4,2.9H15L15.3,38.1z"/>
		</g>
		<g id="XMLID_664_">
			<path id="XMLID_667_" class="st5" d="M34.5,41.2c0,0-0.2,3.6-6.5,3.6h-1.6c-3.7,0-6.7,3-6.7,6.7v8.8l-4.3,2.4v-7.5
				c0-0.2,0-0.5,0-0.7c-0.1-6.6-2.1-9.5-7.6-13.2H34.5z"/>
			<path id="XMLID_666_" class="st5" d="M27,47.6v8.7l-4.5,2.5v-6.6C22.5,49.6,24.5,47.6,27,47.6z"/>
			
				<linearGradient id="XMLID_19_" gradientUnits="userSpaceOnUse" x1="19.7456" y1="17.7866" x2="34.5058" y2="17.7866" gradientTransform="matrix(1 0 0 -1 0 64.11)">
				<stop  offset="0" style="stop-color:#333333"/>
				<stop  offset="0.8" style="stop-color:#333333;stop-opacity:0"/>
			</linearGradient>
			<path id="XMLID_665_" class="st6" d="M34.5,41.2c0,0-0.2,3.6-6.5,3.6h-1.6c-3.7,0-6.7,3-6.7,6.7c0,0-0.2-10.3,5.9-10.3H34.5z"/>
		</g>
	</g>
	<g id="XMLID_650_">
		<path id="XMLID_662_" class="st7" d="M58.4,43.1H52c-0.1,0-0.2-0.1-0.2-0.2v-21c0-0.6-0.5-1.1-1.1-1.1c-0.6,0-1.1,0.5-1.1,1.1
			v21.3c0,1.2,1,2.2,2.2,2.2h6.6c0.6,0,1.1-0.5,1.1-1.1C59.5,43.5,59,43.1,58.4,43.1z"/>
		<path id="XMLID_658_" class="st7" d="M66,20.8c-0.6,0-1.1,0.5-1.1,1.1v12.4v5.2v4.7c0,0.6,0.5,1.1,1.1,1.1h0
			c0.6,0,1.1-0.5,1.1-1.1v-4.7v-5.2V21.9C67.1,21.3,66.6,20.8,66,20.8z"/>
		<path id="XMLID_655_" class="st7" d="M77.5,20.7h-2.9c-1.2,0-2.2,1-2.2,2.2v20.2c0,1.2,1,2.2,2.2,2.2h2.9c2.7,0,4.9-2.2,4.9-4.9
			v-3.5c0-1.5-0.7-2.9-1.8-3.8c1.2-0.9,1.8-2.3,1.8-3.8v-3.5C82.4,22.9,80.2,20.7,77.5,20.7z M80.2,29.2c0,1.5-1.2,2.7-2.7,2.7h-1.4
			c-0.6,0-1.1,0.5-1.1,1.1c0,0.6,0.5,1.1,1.1,1.1h1.4c1.5,0,2.7,1.2,2.7,2.7v3.5c0,1.5-1.2,2.7-2.7,2.7h-2.6c-0.1,0-0.2-0.1-0.2-0.2
			V23.2c0-0.1,0.1-0.2,0.2-0.2h2.6c1.5,0,2.7,1.2,2.7,2.7V29.2z"/>
		<path id="XMLID_654_" class="st7" d="M90.2,22.9h6.2c0.6,0,1.1-0.5,1.1-1.1c0-0.6-0.5-1.1-1.1-1.1H90c-1.2,0-2.2,1-2.2,2.2v20.2
			c0,1.2,1,2.2,2.2,2.2h6.4c0.6,0,1.1-0.5,1.1-1.1c0-0.6-0.5-1.1-1.1-1.1h-6.2c-0.1,0-0.2-0.1-0.2-0.2v-8.7h6.4
			c0.6,0,1.1-0.5,1.1-1.1c0-0.6-0.5-1.1-1.1-1.1H90v-8.7C90,23,90.1,22.9,90.2,22.9z"/>
		<path id="XMLID_653_" class="st7" d="M108,20.7h-2.9c-1.2,0-2.2,1-2.2,2.2v21.3c0,0.6,0.5,1.1,1.1,1.1c0.6,0,1.1-0.5,1.1-1.1v-21
			c0-0.1,0.1-0.2,0.2-0.2h2.6c1.5,0,2.7,1.2,2.7,2.7v5.5c0,1.5-1.2,2.7-2.7,2.7h-1.3c-0.7,0-1.2,0.5-1.2,1.2v0.7
			c0,0.2,0.1,0.4,0.2,0.6l5.1,8.3c0.2,0.3,0.6,0.5,0.9,0.5h0c0.4,0,0.8-0.2,1-0.6c0.2-0.4,0.2-0.8,0-1.1l-4.7-7.5
			c2.7,0,4.9-2.2,4.9-4.9v-5.5C112.9,22.9,110.7,20.7,108,20.7z"/>
		<path id="XMLID_652_" class="st7" d="M126.9,20.7h-7.4c-0.6,0-1.1,0.5-1.1,1.1c0,0.6,0.5,1.1,1.1,1.1h2.6v21.2
			c0,0.6,0.5,1.1,1.1,1.1h0c0.6,0,1.1-0.5,1.1-1.1V22.9h2.6c0.6,0,1.1-0.5,1.1-1.1C128,21.2,127.5,20.7,126.9,20.7z"/>
		<path id="XMLID_651_" class="st7" d="M143.9,21.2c-0.2-0.3-0.5-0.4-0.9-0.4c-0.5,0-0.9,0.3-1.1,0.8l-3.3,11l-3-11
			c-0.1-0.5-0.6-0.8-1.1-0.8c-0.3,0-0.7,0.2-0.9,0.4c-0.2,0.3-0.3,0.6-0.2,1l4,14.7c0,0.1,0,0.1,0,0.2v7.2c0,0.6,0.5,1.1,1.1,1.1h0
			c0.6,0,1.1-0.5,1.1-1.1V37c0-0.1,0-0.1,0-0.2l0-0.1l0-0.2l4.3-14.4C144.2,21.8,144.1,21.4,143.9,21.2z"/>
	</g>
</g>
</svg>
