<?xml version="1.0" encoding="utf-8"?>
<!-- Generator: Adobe Illustrator 19.0.0, SVG Export Plug-In . SVG Version: 6.00 Build 0)  -->
<svg version="1.1" id="Layer_1" xmlns="http://www.w3.org/2000/svg" xmlns:xlink="http://www.w3.org/1999/xlink" x="0px" y="0px"
	 viewBox="0 0 64 64" style="enable-background:new 0 0 64 64;" xml:space="preserve">
<style type="text/css">
	.st0{fill:#2C2C2C;}
</style>
<g id="XMLID_328_">
	<rect id="XMLID_67_" x="23.4" y="17.6" class="st0" width="1.5" height="2.9"/>
	<rect id="XMLID_66_" x="27.2" y="17.6" class="st0" width="1.5" height="2.9"/>
	<rect id="XMLID_65_" x="31" y="17.6" class="st0" width="1.5" height="2.9"/>
	<rect id="XMLID_64_" x="34.8" y="17.6" class="st0" width="1.5" height="2.9"/>
	<rect id="XMLID_63_" x="38.6" y="17.6" class="st0" width="1.5" height="2.9"/>
	<rect id="XMLID_62_" x="23.4" y="43.3" class="st0" width="1.5" height="2.9"/>
	<rect id="XMLID_61_" x="27.2" y="43.3" class="st0" width="1.5" height="2.9"/>
	<rect id="XMLID_60_" x="31" y="43.3" class="st0" width="1.5" height="2.9"/>
	<rect id="XMLID_59_" x="34.8" y="43.3" class="st0" width="1.5" height="2.9"/>
	<rect id="XMLID_58_" x="38.6" y="43.3" class="st0" width="1.5" height="2.9"/>
	<rect id="XMLID_57_" x="43.2" y="23.5" class="st0" width="2.9" height="1.5"/>
	<rect id="XMLID_56_" x="43.2" y="27.3" class="st0" width="2.9" height="1.5"/>
	<rect id="XMLID_55_" x="43.2" y="31.1" class="st0" width="2.9" height="1.5"/>
	<rect id="XMLID_54_" x="43.2" y="34.9" class="st0" width="2.9" height="1.5"/>
	<rect id="XMLID_53_" x="43.2" y="38.7" class="st0" width="2.9" height="1.5"/>
	<rect id="XMLID_52_" x="17.5" y="23.5" class="st0" width="2.9" height="1.5"/>
	<rect id="XMLID_51_" x="17.5" y="27.3" class="st0" width="2.9" height="1.5"/>
	<rect id="XMLID_50_" x="17.5" y="31.1" class="st0" width="2.9" height="1.5"/>
	<rect id="XMLID_49_" x="17.5" y="34.9" class="st0" width="2.9" height="1.5"/>
	<rect id="XMLID_48_" x="17.5" y="38.7" class="st0" width="2.9" height="1.5"/>
	<polygon id="XMLID_47_" class="st0" points="21.1,62.3 19.6,62.3 19.6,59.2 23.4,55.4 23.4,48.1 24.9,48.1 24.9,56 21.1,59.8 	"/>
	<rect id="XMLID_46_" x="27.2" y="48.1" class="st0" width="1.5" height="6.7"/>
	<polygon id="XMLID_45_" class="st0" points="28.7,62.3 27.2,62.3 27.2,56.8 31,56.8 31,48.1 32.5,48.1 32.5,58.3 28.7,58.3 	"/>
	<polygon id="XMLID_44_" class="st0" points="49.9,56.4 34.8,56.4 34.8,48.1 36.3,48.1 36.3,54.9 49.9,54.9 	"/>
	<rect id="XMLID_43_" x="38.6" y="51.9" class="st0" width="1.5" height="10.5"/>
	<rect id="XMLID_42_" x="31" y="5.2" class="st0" width="1.5" height="10.5"/>
	<polygon id="XMLID_41_" class="st0" points="40.1,15.7 38.6,15.7 38.6,10.6 40.5,8.7 40.5,1.4 42.1,1.4 42.1,9.4 40.1,11.3 	"/>
	<polygon id="XMLID_40_" class="st0" points="28.7,15.7 27.2,15.7 27.2,6.9 19.4,6.9 19.4,5.4 28.7,5.4 	"/>
	<rect id="XMLID_39_" x="23.4" y="13.8" class="st0" width="1.5" height="1.9"/>
	<polygon id="XMLID_38_" class="st0" points="62.2,42.2 56.2,42.2 54.3,40.3 48,40.3 48,38.7 54.9,38.7 56.8,40.6 62.2,40.6 	"/>
	<polygon id="XMLID_37_" class="st0" points="62.2,38.4 58.1,38.4 56.2,36.4 51.8,36.4 51.8,34.9 56.8,34.9 58.7,36.8 62.2,36.8 	
		"/>
	<rect id="XMLID_36_" x="48" y="31.1" class="st0" width="10.5" height="1.5"/>
	<polygon id="XMLID_35_" class="st0" points="56.8,25 48,25 48,23.5 56.2,23.5 58.1,21.6 62.2,21.6 62.2,23.1 58.7,23.1 	"/>
	<polygon id="XMLID_34_" class="st0" points="8.3,42.2 1.3,42.2 1.3,40.6 7.7,40.6 9.6,38.7 15.6,38.7 15.6,40.3 10.2,40.3 	"/>
	<polygon id="XMLID_33_" class="st0" points="15.6,32.6 6.3,32.6 6.3,13.8 7.8,13.8 7.8,31.1 15.6,31.1 	"/>
	<rect id="XMLID_32_" x="48" y="34.9" class="st0" width="1.9" height="1.5"/>
	<rect id="XMLID_31_" x="55.6" y="27.3" class="st0" width="6.7" height="1.5"/>
	<rect id="XMLID_30_" x="48.1" y="9" class="st0" width="1.5" height="1.9"/>
	<rect id="XMLID_29_" x="34.6" y="60.6" class="st0" width="1.9" height="1.5"/>
	<rect id="XMLID_28_" x="51.8" y="54.9" class="st0" width="1.9" height="1.5"/>
	<rect id="XMLID_27_" x="38.6" y="48.1" class="st0" width="1.5" height="1.9"/>
	<rect id="XMLID_26_" x="15.6" y="46.3" class="st0" width="1.9" height="1.5"/>
	<rect id="XMLID_25_" x="11.8" y="46.3" class="st0" width="1.9" height="1.5"/>
	<rect id="XMLID_24_" x="8" y="46.3" class="st0" width="1.9" height="1.5"/>
	<rect id="XMLID_23_" x="11.8" y="50.2" class="st0" width="1.9" height="1.5"/>
	<rect id="XMLID_22_" x="15.6" y="54" class="st0" width="1.9" height="1.5"/>
	<rect id="XMLID_21_" x="15.6" y="50.2" class="st0" width="1.9" height="1.5"/>
	<rect id="XMLID_20_" x="13.7" y="34.9" class="st0" width="1.9" height="1.5"/>
	<rect id="XMLID_19_" x="9.9" y="34.9" class="st0" width="1.9" height="1.5"/>
	<rect id="XMLID_18_" x="6.1" y="34.9" class="st0" width="1.9" height="1.5"/>
	<rect id="XMLID_17_" x="6.3" y="10" class="st0" width="1.5" height="1.9"/>
	<polygon id="XMLID_16_" class="st0" points="53.5,28.8 48,28.8 48,27.3 52,27.3 52,6.9 36.3,6.9 36.3,15.7 34.8,15.7 34.8,5.4 
		53.5,5.4 	"/>
	<rect id="XMLID_15_" x="13.7" y="19.7" class="st0" width="1.9" height="1.5"/>
	<rect id="XMLID_14_" x="13.7" y="15.9" class="st0" width="1.9" height="1.5"/>
	<path id="XMLID_11_" class="st0" d="M49.7,49.8h-5.3v-5.3h5.3V49.8z M45.9,48.3h2.3V46h-2.3V48.3z"/>
	<rect id="XMLID_6_" x="31" y="1.4" class="st0" width="1.5" height="1.9"/>
	<rect id="XMLID_5_" x="23.4" y="1.4" class="st0" width="1.5" height="1.9"/>
	<rect id="XMLID_4_" x="19.6" y="1.4" class="st0" width="1.5" height="1.9"/>
	<rect id="XMLID_2_" x="34.8" y="1.4" class="st0" width="1.5" height="1.9"/>
	<path id="XMLID_8_" class="st0" d="M19.2,19.3v25.1h23l2.1-2.1v-23H19.2z M22.3,23.3c-0.5,0-1-0.4-1-1c0-0.5,0.4-1,1-1
		c0.5,0,1,0.4,1,1C23.2,22.9,22.8,23.3,22.3,23.3z M28.9,41.9l0.1-0.2c0.2-0.4,0.1-0.8-0.3-1l-4.3-2.4c-1.4-0.8-1.9-2.5-1.1-3.9
		l2.1-3.6l-0.1,0.1c0,0,0,0,0,0.1c0,0,0,0,0-0.1l0.1-0.1l0-0.1l3.2-5.4l0,0l0.4-0.7c0,0,0,0,0-0.1c1.1-2,0.4-3,0.4-3l0.7,0.4
		l1.5,0.9c0.4,0.3,0.8,0.6,1.3,0.9l-6.3,10.6c-0.5,0.8-0.2,1.8,0.5,2.3c-0.1,0-0.1-0.1-0.2-0.2c0,0,0,0-0.1-0.1c0,0-0.1-0.1-0.1-0.1
		c0,0-0.1,0-0.1-0.1c-0.1,0-0.1-0.1-0.2-0.2c0,0-0.1-0.1-0.1-0.1c0,0,0,0,0,0c0,0,0,0,0,0c0,0,0,0,0,0c0,0,0,0,0,0
		c0,0,0.1,0.1,0.1,0.1c0.1,0.1,0.1,0.1,0.2,0.2c0,0,0.1,0,0.1,0.1c0,0,0.1,0.1,0.1,0.1c0,0,0.1,0,0.1,0.1c0.1,0.1,0.2,0.1,0.2,0.2
		c0,0,0.1,0,0.1,0.1c0,0,0.1,0,0.1,0c0,0,0,0,0,0l6.6,3.6c1.4,0.8,1.4,1.6,1.4,1.6H28.9z M37.8,32.5c-0.1-0.8-0.7-1.6-1.6-2.1
		l-0.9-0.5c0,0,0,0,0,0c0,0-0.1,0-0.1,0c-0.5-0.2-0.5-0.2,0,0c-0.3-0.1-0.7,0-0.9,0.3l-0.3,0.4l-1.7,2.9c-0.2,0.4-0.1,0.8,0.3,1
		l1.4,0.8l0.5,0.3l1.4,0.8c0.7,0.4,1.2,1,1.5,1.7c0.2,0.5,0.3,1,0.3,1.5c0,0.9-0.3,1.7-0.7,2.3c0-1.1-0.7-2.1-1.9-2.8l-0.8-0.5
		l-0.8-0.5L32.9,38l-1.3-0.7l-3.2-1.8c-0.3-0.2-0.4-0.5-0.2-0.8l2.4-4.1c0,0,0,0,0,0l0,0l3.6-6.1c0.2,0.2,0.4,0.4,0.6,0.5
		c0.6,0.6,1.1,1.2,1.6,1.8C37.6,28.5,38.3,30.4,37.8,32.5z"/>
</g>
</svg>
