<?xml version="1.0" encoding="utf-8"?>
<!-- Generator: Adobe Illustrator 19.0.0, SVG Export Plug-In . SVG Version: 6.00 Build 0)  -->
<svg version="1.1" id="Layer_1" xmlns="http://www.w3.org/2000/svg" xmlns:xlink="http://www.w3.org/1999/xlink" x="0px" y="0px"
	 viewBox="0 0 64 64" style="enable-background:new 0 0 64 64;" xml:space="preserve">
<style type="text/css">
	.st0{fill:#2C2C2C;}
</style>
<g id="XMLID_152_">
	<path id="XMLID_148_" class="st0" d="M44.7,21.4l-12.3-5.6l-0.1,0l-0.1,0L20,21.4h-3.4v2.2c0,7.7,2.9,13.6,6.2,17.7l0,0.1
		c0.5,0.6,1.1,1.2,1.6,1.8c0,0,0,0,0.1,0.1c0,0,0.1,0.1,0.1,0.1c3.9,4.1,7.7,6,7.7,6s0,0,0.1,0c0,0,0.1,0,0.1,0s3.8-1.9,7.7-6
		c0,0,0.1-0.1,0.1-0.1c0,0,0,0,0.1-0.1c0.5-0.6,1.1-1.2,1.6-1.8l0-0.1c3.3-4.2,6.2-10,6.2-17.7v-2.2H44.7z M29.8,40.9l0.1-0.2
		c0.2-0.4,0.1-0.8-0.3-1l-4.3-2.4c-1.4-0.8-1.9-2.5-1.1-3.9l2.1-3.6l-0.1,0.1c0,0,0,0,0,0.1c0,0,0,0,0-0.1l0.1-0.1l0-0.1l3.2-5.4
		l0,0l0.4-0.7c0,0,0,0,0-0.1c1.1-2,0.4-3,0.4-3l0.7,0.4l1.5,0.9c0.4,0.3,0.8,0.6,1.3,0.9l-6.3,10.6c-0.5,0.8-0.2,1.8,0.5,2.3
		c-0.1,0-0.1-0.1-0.2-0.2c0,0,0,0-0.1-0.1c0,0-0.1-0.1-0.1-0.1c0,0-0.1,0-0.1-0.1c-0.1,0-0.1-0.1-0.2-0.2c0,0-0.1-0.1-0.1-0.1
		c0,0,0,0,0,0c0,0,0,0,0,0c0,0,0,0,0,0c0,0,0,0,0,0c0,0,0.1,0.1,0.1,0.1c0.1,0.1,0.1,0.1,0.2,0.2c0,0,0.1,0,0.1,0.1
		c0,0,0.1,0.1,0.1,0.1c0,0,0.1,0,0.1,0.1c0.1,0.1,0.2,0.1,0.2,0.2c0,0,0.1,0,0.1,0.1c0,0,0.1,0,0.1,0c0,0,0,0,0,0l6.6,3.6
		c1.4,0.8,1.4,1.6,1.4,1.6H29.8z M38.6,31.5c-0.1-0.8-0.7-1.6-1.6-2.1L36.1,29c0,0,0,0,0,0c0,0-0.1,0-0.1,0c-0.5-0.2-0.5-0.2,0,0
		c-0.3-0.1-0.7,0-0.9,0.3l-0.3,0.4l-1.7,2.9c-0.2,0.4-0.1,0.8,0.3,1l1.4,0.8l0.5,0.3l1.4,0.8c0.7,0.4,1.2,1,1.5,1.7
		c0.2,0.5,0.3,1,0.3,1.5c0,0.9-0.3,1.7-0.7,2.3c0-1.1-0.7-2.1-1.9-2.8L35,37.7l-0.8-0.5L33.8,37l-1.3-0.7l-3.2-1.8
		C29,34.4,28.9,34,29,33.7l2.4-4.1c0,0,0,0,0,0c0,0,0,0,0,0l3.6-6.1c0.2,0.2,0.4,0.4,0.6,0.5c0.6,0.6,1.1,1.2,1.6,1.8
		C38.5,27.5,39.2,29.4,38.6,31.5z"/>
	<g id="XMLID_296_">
		<g id="XMLID_302_">
			<path id="XMLID_304_" class="st0" d="M56.9,17.8c2.6,4.3,4,9.3,4,14.7c0,15.8-12.8,28.6-28.6,28.6c-5.4,0-10.4-1.5-14.7-4
				l-1.3,1.3c4.6,2.9,10.1,4.5,15.9,4.5c16.7,0,30.4-13.6,30.4-30.4c0-5.8-1.7-11.3-4.5-15.9L56.9,17.8z"/>
			<path id="XMLID_303_" class="st0" d="M2.6,31.3c0-15.8,12.8-28.6,28.6-28.6c5.4,0,10.4,1.5,14.7,4l1.3-1.3
				C42.5,2.6,37,0.9,31.2,0.9C14.5,0.9,0.8,14.6,0.8,31.3c0,5.8,1.7,11.3,4.5,15.9L6.6,46C4.1,41.7,2.6,36.7,2.6,31.3z"/>
		</g>
		<polygon id="XMLID_301_" class="st0" points="7.1,48 0.1,46.9 0.3,45.4 5.9,46.2 6.7,40.7 8.2,40.9 		"/>
		<polygon id="XMLID_300_" class="st0" points="56.4,23.2 54.9,22.9 56.5,15.9 63.5,17.5 63.1,19 57.7,17.7 		"/>
	</g>
	<path id="XMLID_101_" class="st0" d="M31.9,54.4l0-1.5c0.5,0,1,0,1.5-0.1l0.1,1.5C33,54.3,32.5,54.4,31.9,54.4z M30.3,54.3
		c-0.5,0-1.1-0.1-1.6-0.2l0.2-1.5c0.5,0.1,1,0.1,1.5,0.1L30.3,54.3z M35.1,54.1l-0.2-1.5c0.5-0.1,1-0.2,1.5-0.3l0.3,1.5
		C36.2,54,35.6,54.1,35.1,54.1z M27.2,53.9c-0.5-0.1-1-0.2-1.5-0.4l0.4-1.5c0.5,0.1,1,0.2,1.4,0.3L27.2,53.9z M38.2,53.5L37.8,52
		c0.5-0.1,1-0.3,1.4-0.5l0.5,1.4C39.2,53.2,38.7,53.4,38.2,53.5z M24.1,53c-0.5-0.2-1-0.4-1.5-0.6l0.6-1.4c0.5,0.2,0.9,0.4,1.4,0.5
		L24.1,53z M41.2,52.4L40.6,51c0.5-0.2,0.9-0.4,1.3-0.6l0.7,1.4C42.2,52,41.7,52.2,41.2,52.4z M21.2,51.8c-0.5-0.2-0.9-0.5-1.4-0.8
		l0.8-1.3c0.4,0.3,0.9,0.5,1.3,0.7L21.2,51.8z M44,51l-0.8-1.3c0.4-0.3,0.8-0.5,1.2-0.8l0.9,1.2C44.9,50.4,44.5,50.7,44,51z
		 M18.5,50.1c-0.4-0.3-0.9-0.6-1.3-1l1-1.2c0.4,0.3,0.8,0.6,1.2,0.9L18.5,50.1z M46.6,49.1l-1-1.2c0.4-0.3,0.8-0.6,1.1-1l1,1.1
		C47.4,48.4,47,48.8,46.6,49.1z M16,48.1c-0.4-0.4-0.8-0.7-1.1-1.1l1.1-1c0.3,0.4,0.7,0.7,1.1,1L16,48.1z M48.9,47l-1.1-1
		c0.3-0.4,0.7-0.7,1-1.1l1.2,1C49.7,46.2,49.3,46.6,48.9,47z M13.9,45.8c-0.3-0.4-0.7-0.8-1-1.3l1.2-0.9c0.3,0.4,0.6,0.8,0.9,1.2
		L13.9,45.8z M50.9,44.5l-1.2-0.9c0.3-0.4,0.6-0.8,0.8-1.2l1.3,0.8C51.5,43.6,51.3,44.1,50.9,44.5z M12,43.2
		c-0.3-0.4-0.5-0.9-0.8-1.4l1.3-0.7c0.2,0.4,0.5,0.9,0.7,1.3L12,43.2z M52.6,41.8l-1.4-0.7c0.2-0.4,0.4-0.9,0.6-1.3l1.4,0.6
		C53.1,40.8,52.8,41.3,52.6,41.8z M10.6,40.4c-0.2-0.5-0.4-1-0.6-1.5l1.4-0.5c0.2,0.5,0.4,0.9,0.5,1.4L10.6,40.4z M53.9,38.9
		l-1.4-0.5c0.2-0.5,0.3-0.9,0.4-1.4l1.5,0.4C54.2,37.9,54,38.4,53.9,38.9z M9.5,37.4c-0.1-0.5-0.3-1-0.4-1.5l1.5-0.3
		c0.1,0.5,0.2,1,0.4,1.4L9.5,37.4z M54.7,35.8l-1.5-0.3c0.1-0.5,0.2-1,0.3-1.5l1.5,0.2C54.9,34.8,54.8,35.3,54.7,35.8z M8.8,34.3
		c-0.1-0.5-0.1-1.1-0.2-1.6l1.5-0.1c0,0.5,0.1,1,0.2,1.5L8.8,34.3z M55.2,32.7l-1.5-0.1c0-0.5,0.1-1,0.1-1.5V31h1.5v0.1
		C55.2,31.6,55.2,32.1,55.2,32.7z M9,31.1l-0.4,0c0-0.5,0-1,0-1.6l1.5,0.1c0,0.5,0,1,0,1.4L9,31.1z M53.6,29.5c0-0.5-0.1-1-0.2-1.5
		l1.5-0.2c0.1,0.5,0.1,1.1,0.2,1.6L53.6,29.5z M10.3,28.1l-1.5-0.2c0.1-0.5,0.2-1,0.3-1.6l1.5,0.3C10.5,27.2,10.4,27.7,10.3,28.1z
		 M53.2,26.5c-0.1-0.5-0.2-1-0.4-1.4l1.5-0.4c0.1,0.5,0.3,1,0.4,1.5L53.2,26.5z M10.9,25.2l-1.5-0.4c0.1-0.5,0.3-1,0.5-1.5l1.4,0.5
		C11.2,24.3,11.1,24.8,10.9,25.2z M52.4,23.7c-0.2-0.5-0.4-0.9-0.6-1.4l1.4-0.6c0.2,0.5,0.4,1,0.6,1.5L52.4,23.7z M11.9,22.4
		l-1.4-0.6c0.2-0.5,0.4-1,0.7-1.4l1.4,0.7C12.3,21.5,12.1,22,11.9,22.4z M51.2,21c-0.2-0.4-0.5-0.9-0.7-1.3l1.3-0.8
		c0.3,0.4,0.5,0.9,0.8,1.4L51.2,21z M13.3,19.8L12,19c0.3-0.5,0.6-0.9,0.9-1.3l1.2,0.9C13.8,19,13.5,19.4,13.3,19.8z M49.7,18.4
		c-0.3-0.4-0.6-0.8-0.9-1.2l1.2-1c0.3,0.4,0.7,0.8,1,1.3L49.7,18.4z M15,17.4l-1.2-1c0.3-0.4,0.7-0.8,1-1.2l1.1,1
		C15.6,16.6,15.3,17,15,17.4z M47.8,16.1c-0.3-0.4-0.7-0.7-1.1-1l1-1.1c0.4,0.4,0.8,0.7,1.1,1.1L47.8,16.1z M17,15.2l-1-1.1
		c0.4-0.4,0.8-0.7,1.2-1l1,1.2C17.7,14.5,17.4,14.9,17,15.2z M45.6,14.1c-0.4-0.3-0.8-0.6-1.2-0.9l0.9-1.2c0.4,0.3,0.9,0.6,1.3,1
		L45.6,14.1z M19.3,13.3l-0.9-1.2c0.4-0.3,0.9-0.6,1.3-0.9l0.8,1.3C20.1,12.7,19.7,13,19.3,13.3z M43.2,12.4
		c-0.4-0.3-0.9-0.5-1.3-0.7l0.7-1.4c0.5,0.2,0.9,0.5,1.4,0.8L43.2,12.4z M21.8,11.8l-0.7-1.3c0.5-0.2,1-0.5,1.4-0.7l0.6,1.4
		C22.7,11.3,22.3,11.5,21.8,11.8z M40.5,11.1c-0.5-0.2-0.9-0.4-1.4-0.5l0.5-1.4c0.5,0.2,1,0.4,1.5,0.6L40.5,11.1z M24.6,10.6L24,9.1
		c0.5-0.2,1-0.3,1.5-0.5l0.4,1.5C25.5,10.2,25,10.4,24.6,10.6z M37.7,10.1c-0.5-0.1-1-0.2-1.4-0.3l0.3-1.5c0.5,0.1,1,0.2,1.5,0.4
		L37.7,10.1z M27.4,9.8l-0.3-1.5c0.5-0.1,1-0.2,1.6-0.3l0.2,1.5C28.4,9.6,27.9,9.7,27.4,9.8z M34.8,9.5c-0.5-0.1-1-0.1-1.5-0.1
		l0.1-1.5C34,7.8,34.5,7.9,35,8L34.8,9.5z M30.4,9.3l-0.1-1.5c0.5,0,1.1-0.1,1.6-0.1l0,1.5C31.3,9.3,30.8,9.3,30.4,9.3z"/>
</g>
</svg>
